<?xml version="1.0" standalone="no"?>
<!DOCTYPE svg PUBLIC "-//W3C//DTD SVG 20010904//EN"
 "http://www.w3.org/TR/2001/REC-SVG-20010904/DTD/svg10.dtd">
<svg version="1.0" xmlns="http://www.w3.org/2000/svg"
 width="260.000000pt" height="260.000000pt" viewBox="0 0 260.000000 260.000000"
 preserveAspectRatio="xMidYMid meet">
<metadata>
Created by potrace 1.11, written by Peter Selinger 2001-2013
</metadata>
<g transform="translate(0.000000,260.000000) scale(0.100000,-0.100000)"
fill="#000000" stroke="none">
<path d="M25 2112 c-3 -3 -5 -361 -5 -796 l0 -791 192 1 c258 2 333 11 448 58
192 78 351 255 423 469 32 93 39 136 42 254 6 250 -98 485 -284 640 -99 82
-194 125 -336 154 -58 11 -470 21 -480 11z m503 -116 c234 -65 415 -253 478
-496 17 -69 24 -237 11 -305 -30 -162 -127 -331 -246 -427 -127 -104 -239
-138 -478 -145 l-173 -6 0 703 0 703 178 -6 c109 -4 198 -12 230 -21z"/>
<path d="M1745 2103 c-161 -33 -293 -127 -353 -253 -35 -75 -40 -96 -48 -205
-11 -148 29 -269 120 -359 70 -69 125 -96 301 -149 171 -52 252 -85 279 -116
15 -16 18 -31 14 -76 -7 -80 -29 -100 -111 -100 -93 0 -135 36 -146 125 -1 6
-88 10 -240 10 l-238 0 4 -27 c38 -245 174 -398 408 -458 94 -25 296 -29 390
-9 275 57 433 233 452 500 12 185 -75 323 -264 418 -39 20 -107 43 -150 52
-117 24 -228 70 -274 113 -32 31 -39 45 -39 75 0 48 13 72 50 91 67 34 142 -1
157 -73 4 -20 6 -40 5 -44 -3 -10 -9 -10 240 -12 216 -1 218 -1 218 20 0 88
-60 237 -125 312 -71 81 -170 136 -300 165 -80 18 -263 18 -350 0z"/>
</g>
</svg>
