<svg id="Calque_2" data-name="Calque 2" xmlns="http://www.w3.org/2000/svg" viewBox="0 0 219.18 19.37"><defs><style>.cls-1{fill:#ffffff;}</style></defs><title>dev_sante</title><path class="cls-1" d="M184.17,43.31s0-4.48-5.32-4.48S173.68,43,173.68,43a3.81,3.81,0,0,0,3,4.16c3.44,1,3.41,1.13,3.41,1.85s-.31,1-1,1a1.15,1.15,0,0,1-1.28-1.22h-4.23s0,4.45,5.54,4.45,5.57-4.38,5.57-4.38.63-2.82-3.16-4.1c0,0-3.57-.53-3.29-1.85,0,0,0-.81,1-.81s.94,1.25.94,1.25Z" transform="translate(-16.71 -33.84)"/><path class="cls-1" d="M195.43,39v.91a7,7,0,1,0-3.75,12.8,7,7,0,0,0,3.8-1.11v1.14h4V39Zm-3.16,9.86a3.1,3.1,0,1,1,3.1-3.1A3.1,3.1,0,0,1,192.27,48.88Z" transform="translate(-16.71 -33.84)"/><path class="cls-1" d="M213.78,42a5,5,0,0,0-4.7-3.35c-2.72-.14-3.7,1.27-3.88,1.57V39h-4V52.77h4V44.23a2.6,2.6,0,0,1,2.44-1.68,1.8,1.8,0,0,1,2,1.69V52.8h4.29V43.5A9.36,9.36,0,0,0,213.78,42Z" transform="translate(-16.71 -33.84)"/><polygon class="cls-1" points="198.77 0 198.77 18.93 203.12 18.93 203.12 8.66 204.97 8.66 204.97 5.31 203.06 5.31 203.06 0 198.77 0"/><polygon class="cls-1" points="212.2 0.11 216.64 0.11 213.79 4.4 209.6 4.4 212.2 0.11"/><path class="cls-1" d="M235.89,45.94a7.26,7.26,0,1,0-.48,2.59h-4.34a3.19,3.19,0,0,1-2.32,1.1,3.31,3.31,0,0,1-3.29-2.27h10.29A7.83,7.83,0,0,0,235.89,45.94Zm-10.33-1.49a2.85,2.85,0,0,1,3-2,2.91,2.91,0,0,1,3,2Z" transform="translate(-16.71 -33.84)"/><path class="cls-1" d="M16.71,38.87h2.5a6.84,6.84,0,0,1,5.14,1.75,7.17,7.17,0,0,1,.07,10.27,6.82,6.82,0,0,1-5.22,1.84h-2.5Zm2.48,13a6.09,6.09,0,0,0,4.65-1.67,6.26,6.26,0,0,0-.17-9,6.15,6.15,0,0,0-4.48-1.51h-1.6v12.2Z" transform="translate(-16.71 -33.84)"/><path class="cls-1" d="M29.56,39.69v5h5.58v.83H29.56v6.34H35.3v.83H28.68V38.87H35.3v.83Zm4.13-4.46-2.28,2.66-.7-.31,1.86-2.7Z" transform="translate(-16.71 -33.84)"/><path class="cls-1" d="M41.59,50.7h0l4.1-11.83h.88l-5,14.31-5-14.31h.88Z" transform="translate(-16.71 -33.84)"/><path class="cls-1" d="M49.07,39.69v5h5.58v.83H49.07v6.34H54.8v.83H48.19V38.87H54.8v.83Z" transform="translate(-16.71 -33.84)"/><path class="cls-1" d="M58.38,51.89H61.9v.83H57.5V38.87h.88Z" transform="translate(-16.71 -33.84)"/><path class="cls-1" d="M77,45.79a7.18,7.18,0,1,1-7.18-7.11A7.21,7.21,0,0,1,77,45.79Zm-13.48,0a6.3,6.3,0,1,0,6.3-6.28A6.34,6.34,0,0,0,63.56,45.79Z" transform="translate(-16.71 -33.84)"/><path class="cls-1" d="M80.06,52.72h-.88V38.87h2.44a4.33,4.33,0,0,1,3,.81,3.84,3.84,0,0,1,.09,5.58,4.59,4.59,0,0,1-3.09.88H80.06Zm1.6-7.4a3.34,3.34,0,0,0,2.42-.75,2.71,2.71,0,0,0,.9-2.08,2.76,2.76,0,0,0-1-2.24,3.84,3.84,0,0,0-2.43-.55H80.06v5.62Z" transform="translate(-16.71 -33.84)"/><path class="cls-1" d="M88.73,52.72h-.88V38.87h2.44a4.32,4.32,0,0,1,3,.81,3.84,3.84,0,0,1,.09,5.58,4.59,4.59,0,0,1-3.09.88H88.73Zm1.6-7.4a3.34,3.34,0,0,0,2.42-.75,2.71,2.71,0,0,0,.9-2.08,2.76,2.76,0,0,0-1-2.24,3.84,3.84,0,0,0-2.42-.55H88.73v5.62Z" transform="translate(-16.71 -33.84)"/><path class="cls-1" d="M97.4,39.69v5H103v.83H97.4v6.34h5.73v.83H96.52V38.87h6.61v.83Z" transform="translate(-16.71 -33.84)"/><path class="cls-1" d="M117.44,41.25h0l-4.83,11.92-4.81-11.92h0l-2.37,11.46h-.85l3-14.31L112.57,51l5.11-12.6,3,14.31h-.84Z" transform="translate(-16.71 -33.84)"/><path class="cls-1" d="M123.18,39.69v5h5.58v.83h-5.58v6.34h5.73v.83H122.3V38.87h6.61v.83Z" transform="translate(-16.71 -33.84)"/><path class="cls-1" d="M144.12,53.18,132.49,40.81v11.9h-.88v-14L143.24,51V38.87h.88Z" transform="translate(-16.71 -33.84)"/><path class="cls-1" d="M150.18,52.72h-.88v-13h-3.58v-.83h8v.83h-3.58Z" transform="translate(-16.71 -33.84)"/><path class="cls-1" d="M166.42,50.46c-1.52,1.28-3.25,2.53-5,2.53a3.57,3.57,0,0,1-3.56-3.6c0-2.39,2.28-3.78,4.14-5a5.37,5.37,0,0,1-1.43-3,2.67,2.67,0,0,1,2.66-2.62,2.48,2.48,0,0,1,2.48,2.53c0,1.56-1.23,2.46-2.55,3.36l3.36,4.59,1.74-1.9.67.36L167,50l2.08,2.77h-.94Zm-4.81-4.76c-1.3.83-2.91,1.88-2.91,3.6a2.76,2.76,0,0,0,2.69,2.88c1.59,0,3.25-1.36,4.52-2.41l-3.44-4.65Zm-.2-4.16c0,1,.72,1.7,1.21,2.51,1-.76,2.19-1.34,2.19-2.71a1.68,1.68,0,0,0-1.66-1.7A1.86,1.86,0,0,0,161.41,41.54Z" transform="translate(-16.71 -33.84)"/></svg>