<svg id="Calque_2" data-name="Calque 2" xmlns="http://www.w3.org/2000/svg" viewBox="0 0 248.99 78.11"><defs><style>.cls-1,.cls-2{fill:#fff;}.cls-1{stroke:#000;}</style></defs><title>dev_sante</title><path class="cls-1" d="M5.5,9.58"/><path class="cls-2" d="M9.83,17.48H5V1.31H9.83c0.09,0,6.42.47,6.42,8.27,0,4-1.73,6-3.17,6.89a6.66,6.66,0,0,1-3.24,1h0ZM6,16.48H9.83c0.22,0,5.42-.09,5.42-6.9S10,2.32,9.8,2.31H6V16.48H6Z"/><path class="cls-1" d="M5.5,9.58"/><polygon class="cls-2" points="25.75 17.48 18.75 17.48 18.75 1.31 25.75 1.31 25.75 2.31 19.75 2.31 19.75 16.48 25.75 16.48 25.75 17.48 25.75 17.48"/><polygon class="cls-2" points="25.75 8.86 19.25 8.86 19.25 7.86 25.75 7.86 25.75 8.86 25.75 8.86"/><polygon class="cls-2" points="48.25 17.48 41.25 17.48 41.25 1.31 48.25 1.31 48.25 2.31 42.25 2.31 42.25 16.48 48.25 16.48 48.25 17.48 48.25 17.48"/><polygon class="cls-2" points="48.25 8.86 41.75 8.86 41.75 7.86 48.25 7.86 48.25 8.86 48.25 8.86"/><polygon class="cls-2" points="56.5 17.48 52 17.48 52 1.81 53 1.81 53 16.48 56.5 16.48 56.5 17.48 56.5 17.48"/><polygon class="cls-2" points="103.75 17.48 96.75 17.48 96.75 1.31 103.75 1.31 103.75 2.31 97.75 2.31 97.75 16.48 103.75 16.48 103.75 17.48 103.75 17.48"/><polygon class="cls-2" points="103.75 8.86 97.25 8.86 97.25 7.86 103.75 7.86 103.75 8.86 103.75 8.86"/><polygon class="cls-2" points="133.5 17.48 126.5 17.48 126.5 1.31 133.5 1.31 133.5 2.31 127.5 2.31 127.5 16.48 133.5 16.48 133.5 17.48 133.5 17.48"/><polygon class="cls-2" points="133.5 8.86 127 8.86 127 7.86 133.5 7.86 133.5 8.86 133.5 8.86"/><polygon class="cls-2" points="199.75 17.48 192.75 17.48 192.75 1.31 199.75 1.31 199.75 2.31 193.75 2.31 193.75 16.48 199.75 16.48 199.75 17.48 199.75 17.48"/><polygon class="cls-2" points="199.75 8.86 193.25 8.86 193.25 7.86 199.75 7.86 199.75 8.86 199.75 8.86"/><polygon class="cls-2" points="33.5 18.58 28.02 1.97 28.98 1.65 33.5 15.38 38.02 1.65 38.98 1.97 33.5 18.58 33.5 18.58"/><path class="cls-2" d="M66,17.48c-4.92,0-8.63-3.49-8.63-8.12s3.71-8,8.63-8,8.63,3.46,8.63,8S70.92,17.48,66,17.48h0ZM66,2.31c-4.42,0-7.63,3-7.63,7s3.28,7.12,7.63,7.12,7.63-3.06,7.63-7.12-3.21-7-7.63-7h0Z"/><path class="cls-2" d="M77.75,17h-1V1.31h4.61a4,4,0,0,1,2.89,4.16c0,2.85-1.91,3.88-2.93,4H77.75V17h0Zm0-8.46h3.5s2-.37,2-3a3,3,0,0,0-2.06-3.17H77.75V8.52h0Z"/><path class="cls-2" d="M87.92,17h-1V1.31h4.61a4,4,0,0,1,2.89,4.16c0,2.85-1.91,3.88-2.93,4H87.92V17h0Zm0-8.46h3.5s2-.37,2-3a3,3,0,0,0-2.06-3.17H87.92V8.52h0Z"/><polygon class="cls-2" points="115.13 18.39 109.53 3.62 106.86 17.08 105.89 16.88 109.22 0 115.13 15.57 121.03 0 124.36 16.88 123.39 17.08 120.72 3.62 115.13 18.39 115.13 18.39"/><polygon class="cls-2" points="151.38 18.31 138.13 3.14 138.13 16.98 137.13 16.98 137.13 0.48 150.38 15.65 150.38 1.81 151.38 1.81 151.38 18.31 151.38 18.31"/><polygon class="cls-2" points="158.38 16.98 157.38 16.98 157.38 1.81 158.38 1.81 158.38 16.98 158.38 16.98"/><polygon class="cls-2" points="162.25 2.31 153.25 2.31 153.25 1.31 162.25 1.31 162.25 2.31 162.25 2.31"/><polygon class="cls-2" points="207.13 16.98 206.13 16.98 206.13 1.81 207.13 1.81 207.13 16.98 207.13 16.98"/><polygon class="cls-2" points="211 2.31 202 2.31 202 1.31 211 1.31 211 2.31 211 2.31"/><path class="cls-2" d="M42.5,38.61s0.12-17.87-21.25-17.87S0.62,37.36.62,37.36-1.25,50.11,12.5,54s13.62,4.5,13.62,7.37S24.87,65.23,22,65.23s-5.12-1.5-5.12-4.87H0S0,78.11,22.12,78.11s22.25-17.5,22.25-17.5,2.5-11.25-12.62-16.37c0,0-14.25-2.12-13.12-7.37,0,0-.12-3.25,3.87-3.25s3.75,5,3.75,5H42.5Z"/><path class="cls-2" d="M87.49,21.48v3.64a27.76,27.76,0,1,0-15,51.12,27.91,27.91,0,0,0,15.16-4.45v4.57H103.5V21.48h-16ZM74.87,60.86A12.37,12.37,0,1,1,87.25,48.48,12.37,12.37,0,0,1,74.87,60.86Z"/><path class="cls-2" d="M160.75,33.48C159,28.61,154.12,20.73,142,20.11c-10.85-.56-14.79,5.08-15.5,6.28v-4.9h-16V76.36h16V42.3a10.37,10.37,0,0,1,9.75-6.69c7.87,0,8,6.75,8,6.75V76.48h17.12V39.36A37.37,37.37,0,0,0,160.75,33.48Z"/><polygon class="cls-2" points="167.5 0.79 167.5 76.36 184.88 76.36 184.88 35.36 192.25 35.36 192.25 21.98 184.63 21.98 184.63 0.79 167.5 0.79"/><polygon class="cls-2" points="221.13 1.23 238.88 1.23 227.5 18.36 210.75 18.36 221.13 1.23"/><path class="cls-2" d="M249,49.11a29,29,0,1,0-1.9,10.35H229.75a12.72,12.72,0,0,1-9.25,4.4c-5.75,0-10.5-2.56-13.12-9.06h41.1A31.25,31.25,0,0,0,249,49.11Zm-41.24-6s1.87-7.92,11.87-7.92,12,7.92,12,7.92H207.75Z"/></svg>